<svg xmlns="http://www.w3.org/2000/svg" width="20" height="20" viewBox="0 0 20 20">
    <path fill="#151c3d" fill-rule="evenodd" d="M1.32 17.162h17.162c.729 0 1.32.59 1.32 1.32 0 .73-.591 1.32-1.32 1.32H1.32c-.729 0-1.32-.59-1.32-1.32 0-.73.591-1.32 1.32-1.32zm4.93-8.87l2.232 2.227V1.512c0-.774.63-1.402 1.406-1.402.777 0 1.406.628 1.406 1.402v9.032l2.257-2.252c.55-.548 1.44-.548 1.989 0 .549.547.55 1.435 0 1.983l-4.976 4.963c-.366.365-.96.365-1.327 0l-4.975-4.963c-.549-.548-.549-1.435 0-1.983.55-.548 1.439-.548 1.988 0z"/>
</svg>
