<svg xmlns="http://www.w3.org/2000/svg" xmlns:xlink="http://www.w3.org/1999/xlink" width="14" height="14" viewBox="0 0 14 14">
    <defs>
        <path id="juxd9p6fga" d="M0 0L13.734 0 13.734 13.575 0 13.575z"/>
    </defs>
    <g fill="none" fill-rule="evenodd">
        <mask id="2ce16uc2lb" fill="#fff">
            <use xlink:href="#juxd9p6fga"/>
        </mask>
        <path fill="#4BC6F0" d="M5.495 9.179c-2.01 0-3.64-1.63-3.64-3.64 0-2.011 1.63-3.64 3.64-3.64 2.007 0 3.635 1.625 3.64 3.63.005 2.008-1.615 3.64-3.623 3.65h-.017zm7.875 1.968l-3.001-3.01c.436-.805.663-1.708.656-2.625C11.025 2.468 8.557 0 5.512 0 2.468 0 0 2.468 0 5.512c0 3.045 2.468 5.513 5.512 5.513.997 0 1.974-.271 2.827-.788l2.966 2.967c.466.483 1.236.497 1.72.03l.03-.03.35-.35c.451-.485.436-1.241-.035-1.707z" mask="url(#2ce16uc2lb)"/>
    </g>
</svg>
